<?xml version="1.0" encoding="iso-8859-1"?>
<!-- Uploaded to: SVG Repo, www.svgrepo.com, Generator: SVG Repo Mixer Tools -->
<!DOCTYPE svg PUBLIC "-//W3C//DTD SVG 1.1//EN" "http://www.w3.org/Graphics/SVG/1.1/DTD/svg11.dtd">
<svg fill="#000000" height="60px" width="6px" version="1.1" id="Capa_1" xmlns="http://www.w3.org/2000/svg" xmlns:xlink="http://www.w3.org/1999/xlink" 
	 viewBox="0 0 477.065 477.065" xml:space="preserve " >
	 <rect width="25.594px" height="1.5"/>
<g>
	<path d="M285.447,102.43l8.201-17.199c6.77-14.21,17.982-25.375,31.788-32.037h-60.099c5.047,9.139,4.487,19.28-4.116,29.312
		C273.444,82.506,283.289,91.225,285.447,102.43z"/>
	<path d="M451.613,53.194h-56.761c21.415,17.028,19.008,40.074,1.818,47.24l-8.495,3.541c43.761,0,43.467-4.038,43.467,23.022
		c5.823,12.082,5.389,25.918,0,37.699v144.151c0,6.149-4.986,11.135-11.135,11.135H56.559c-6.149,0-11.135-4.985-11.135-11.135
		V152.559c-6.289-9.24-4.224-18.03-4.224-45.416c0-13.511,10.933-24.637,24.676-24.637c-7.501-7.493-9.705-19.101-4.084-29.312
		h-36.34C11.399,53.194,0,64.592,0,78.646v269.218c0,14.054,11.399,25.453,25.453,25.453h168.696l-22.719,54.664h-10.421
		c-9.053,0-16.398,7.345-16.398,16.4c0,9.053,7.345,16.398,16.398,16.398h155.046c9.055,0,16.4-7.345,16.4-16.398
		c0-9.055-7.345-16.4-16.4-16.4h-10.419l-22.719-54.664h168.696c14.053,0,25.451-11.399,25.451-25.453V78.646
		C477.065,64.592,465.666,53.194,451.613,53.194z M369.291,356.849c-6.585,0-11.927-5.343-11.927-11.927
		c0-6.585,5.342-11.927,11.927-11.927c6.585,0,11.927,5.342,11.927,11.927C381.218,351.506,375.876,356.849,369.291,356.849z
		 M408.052,356.849c-6.585,0-11.927-5.343-11.927-11.927c0-6.585,5.342-11.927,11.927-11.927c6.585,0,11.927,5.342,11.927,11.927
		C419.979,351.506,414.638,356.849,408.052,356.849z"/>
	<path d="M89.792,83.919c-2.438,4.597-4.472,9.434-6.025,14.489c-11.741,0-26.663-2.71-26.663,8.735
		c0,44.197-4.503,40.369,26.647,40.369c1.57,5.055,3.603,9.901,6.041,14.496c-18.526,18.52-20.95,16.804-5.186,32.558
		c9.861-10.669,19.116-12.564,48.109-24.645c-15.28-10.071-25.405-27.332-25.405-46.954c0-31.02,25.235-56.255,56.247-56.255
		c34.956,0,62.181,31.921,55.145,67.374l51.324-21.4c0-16.593-4.457-14.279-26.665-14.279c-1.552-5.055-3.602-9.9-6.04-14.497
		c8.293-8.3,20.794-16.966,12.703-25.057c-31.432-31.439-25.375-31.696-47.427-9.652c-4.597-2.438-9.427-4.48-14.504-6.025
		c0-11.717,2.702-26.664-8.713-26.664c-44.197,0-40.361-4.519-40.361,26.664c-5.062,1.545-9.907,3.587-14.504,6.025
		c-8.293-8.3-16.942-20.778-25.049-12.703C68.238,67.714,67.71,61.851,89.792,83.919z"/>
	<path d="M163.557,82.614c-22.253,0-40.345,18.099-40.345,40.353c0,18.433,12.485,33.853,29.397,38.661l46.092-19.21
		C214.059,114.737,193.467,82.614,163.557,82.614z"/>
	<path d="M294.92,119.543l-188.294,78.479c-36.308,15.133-13.914,70.86,23.123,55.456l188.31-78.471
		c49.074,17.192,51.092,19.342,88.1-4.123c20.328-12.897,15.668-45.159,3.198-40.004l-32.984,13.736
		c-5.761,2.406-12.423-0.312-14.846-6.127c-16.71-40.066-19.24-32.62,29.025-52.73c12.098-5.039-6.957-31.354-30.671-25.88
		l-16.368,3.735C314.379,70.268,307.81,92.452,294.92,119.543z"/>
</g>
</svg>