<?xml version="1.0" encoding="utf-8"?>
<!-- Uploaded to: SVG Repo, www.svgrepo.com, Generator: SVG Repo Mixer Tools -->
<svg width="800px" height="800px" viewBox="0 0 1024 1024" class="icon"  version="1.1" xmlns="http://www.w3.org/2000/svg"><path d="M227.7 180.4h455.2v22.8H227.7z" fill="#446EB1" /><path d="M666 196.6l17-16.2 136.4 159.4-17 16.2L666 196.6zM227.7 203.2h22.8V795h-22.8z" fill="#446EB1" /><path d="M250.5 203.2v594.7h546.2V363.3H660.2V203.2H250.5z" fill="#E1F0FF" /><path d="M796.7 339.7h22.8v455.2h-22.8zM227.7 794.9h591.8v22.8H227.7z" fill="#446EB1" /><path d="M500.8 430.8h204.8v22.8H500.8zM341.5 521.8h364.2v22.8H341.5zM341.5 612.9h364.2v22.8H341.5zM341.5 703.9h364.2v22.8H341.5z" fill="#6D9EE8" /><path d="M660.2 203.2H683v159.3h-22.8z" fill="#446EB1" /><path d="M682.9 339.7h113.8v22.8H682.9zM442.3 277.3h15.3L440 347.7l-22.8-99h-36.6l-26.5 99-19.9-99H296L334.8 408h37.4l26.2-94.2 23.4 94.2h34.5l44.5-159.3h-58.6v28.6h0.1z" fill="#446EB1" /></svg>